<svg xmlns="http://www.w3.org/2000/svg" viewBox="0 0 1600 1000" preserveAspectRatio="xMidYMid slice"><defs><filter id="grain"><feTurbulence type="fractalNoise" baseFrequency=".7" numOctaves="3" stitchTiles="stitch"/><feColorMatrix values="1 0 0 0 0 0 1 0 0 0 0 0 1 0 0 0 0 0 .045 0"/></filter></defs><defs><linearGradient id="bg" x2="1" y2="1"><stop stop-color="#f4fcf8"/><stop offset="1" stop-color="#c9eadb"/></linearGradient><radialGradient id="glow"><stop stop-color="#34d399" stop-opacity=".27"/><stop offset="1" stop-color="#34d399" stop-opacity="0"/></radialGradient></defs><rect width="1600" height="1000" fill="url(#bg)"/><circle cx="1350" cy="120" r="420" fill="url(#glow)"/><g stroke="#0d8b66" stroke-opacity=".13"><path d="M0 740h1600M0 800h1600M0 860h1600M0 920h1600"/><path d="M120 660v340M240 660v340M360 660v340M480 660v340M600 660v340M720 660v340M840 660v340M960 660v340M1080 660v340M1200 660v340M1320 660v340M1440 660v340"/></g><g transform="translate(875 165)"><rect width="455" height="270" rx="32" fill="#fbfffd" fill-opacity=".72" stroke="#148763" stroke-opacity=".22" stroke-width="3"/><path d="M45 205l68-54 70 24 76-99 66 43 78-78" fill="none" stroke="#079669" stroke-width="9" stroke-linecap="round" stroke-linejoin="round"/><path d="M45 205l68-54 70 24 76-99 66 43 78-78" fill="none" stroke="#51d5a4" stroke-opacity=".45" stroke-width="18" stroke-linecap="round" stroke-linejoin="round"/><circle cx="45" cy="205" r="9" fill="#078c65"/><circle cx="443" cy="41" r="9" fill="#078c65"/></g><g transform="translate(150 250)"><circle cx="170" cy="170" r="146" fill="#f9fffb" fill-opacity=".65" stroke="#168d69" stroke-opacity=".28" stroke-width="3"/><path d="M170 170V24A146 146 0 0 1 310 216Z" fill="#21b783" fill-opacity=".42"/><path d="M170 170l140 46A146 146 0 0 1 44 105Z" fill="#78d8b5" fill-opacity=".55"/><circle cx="170" cy="170" r="60" fill="#f7fffa"/></g><path d="M570 815c130-190 250-100 360-250s220-110 380-245" fill="none" stroke="#059669" stroke-opacity=".23" stroke-width="4"/><rect width="1600" height="1000" filter="url(#grain)"/></svg>