<svg xmlns="http://www.w3.org/2000/svg" viewBox="0 0 1600 1000" preserveAspectRatio="xMidYMid slice"><defs><filter id="grain"><feTurbulence type="fractalNoise" baseFrequency=".7" numOctaves="3" stitchTiles="stitch"/><feColorMatrix values="1 0 0 0 0 0 1 0 0 0 0 0 1 0 0 0 0 0 .045 0"/></filter></defs><defs><linearGradient id="bg" x2="1" y2="1"><stop stop-color="#fffaf0"/><stop offset="1" stop-color="#f6d994"/></linearGradient><radialGradient id="heat"><stop stop-color="#f59e0b" stop-opacity=".45"/><stop offset="1" stop-color="#f59e0b" stop-opacity="0"/></radialGradient></defs><rect width="1600" height="1000" fill="url(#bg)"/><circle cx="1260" cy="150" r="430" fill="url(#heat)"/><g transform="translate(1100 40)"><circle cx="250" cy="210" r="194" fill="#fff8e6" stroke="#bc7509" stroke-opacity=".35" stroke-width="5"/><circle cx="250" cy="210" r="145" fill="none" stroke="#d58a0c" stroke-opacity=".35" stroke-width="8"/><circle cx="250" cy="210" r="103" fill="none" stroke="#eab348" stroke-opacity=".5" stroke-width="3" stroke-dasharray="7 14"/><path d="M45 210h-155" stroke="#9d5a08" stroke-opacity=".42" stroke-width="24" stroke-linecap="round"/></g><g transform="translate(120 170) rotate(-8)"><rect width="390" height="245" rx="25" fill="#fffdf8" stroke="#c27b0b" stroke-opacity=".38" stroke-width="3"/><path d="M42 56h205M42 92h290M42 128h235M42 184h115" stroke="#cc8613" stroke-opacity=".35" stroke-width="12" stroke-linecap="round"/><circle cx="338" cy="52" r="19" fill="#e88d0b" fill-opacity=".55"/></g><g transform="translate(300 640)"><path d="M0 100c70-115 140-115 210 0S350 215 420 100" fill="none" stroke="#d97706" stroke-opacity=".22" stroke-width="3"/><path d="M48 80c26-66 58-66 84 0M212 80c26-66 58-66 84 0" fill="none" stroke="#d97706" stroke-opacity=".35" stroke-width="5" stroke-linecap="round"/></g><g fill="#d97706" fill-opacity=".24"><path d="M800 510l30-52 30 52-30 52z"/><path d="M875 600l18-32 18 32-18 32z"/><path d="M755 635l18-32 18 32-18 32z"/></g><rect width="1600" height="1000" filter="url(#grain)"/></svg>